<mxfile host="app.diagrams.net" modified="2024-03-04T15:39:34.990Z" agent="Mozilla/5.0 (Macintosh; Intel Mac OS X 10_15_7) AppleWebKit/605.1.15 (KHTML, like Gecko) Version/17.2.1 Safari/605.1.15" version="24.0.1" etag="_9q28QbaSfBk1L__P12f" type="github">
  <diagram name="Pagina-1" id="TUPJ8obncVzlcwrCOXqs">
    <mxGraphModel>
      <root>
        <mxCell id="0" />
        <mxCell id="1" parent="0" />
      </root>
    </mxGraphModel>
  </diagram>
</mxfile>
